<?xml version="1.0" encoding="UTF-8"?>
<svg id="Layer_1" data-name="Layer 1" xmlns="http://www.w3.org/2000/svg" viewBox="0 0 549 367">
  <path d="m54.22,284.62c2.91-19.89,5.62-39.11,8.54-58.29,4.32-28.43,8.43-56.89,13.27-85.23,5.75-33.72,12.87-67.23,17.96-101.04,1.9-12.62,10.76-16.81,19.25-21.91,10.01-6.02,21.1-9.6,32.89-10.88,3.78-.41,5.25.63,6.3,4.18,14.45,49.06,29.29,98.01,43.45,147.15,6.2,21.53,11.1,43.43,16.57,65.17.44,1.73.72,3.5,1.17,5.75-6.6-3.07-12.49-6.53-18.84-8.59-9.89-3.2-20.05-5.64-30.19-8-3.52-.82-5.74-1.62-6.62-5.76-2-9.39-4.74-18.62-7.52-29.19-7.35,1.55-15.05,1.97-21.66,4.86-10.28,4.49-19.96,10.44-29.6,16.27-2.02,1.22-3.45,4.45-3.93,6.98-2.01,10.78-3.53,21.65-5.31,32.48-.2,1.25-.58,2.75-1.42,3.57-12.74,12.41-22.77,26.91-32.58,41.59-.15.22-.54.29-1.72.89Zm84.63-151.09c-5.56-20.3-11.25-41.08-16.95-61.86-.41.02-.82.04-1.22.06-5.04,25.45-10.09,50.91-15.05,75.97,11.24-4.8,21.99-9.38,33.23-14.17Z"/>
  <path d="m486.44,130.05c11.76,43.3,23.22,85.44,34.63,127.6,2.04,7.53,4.06,15.07,5.58,22.71.48,2.44.13,5.82-1.26,7.74-8.46,11.74-17.25,23.24-26.11,34.68-1.9,2.45-4.5,4.36-7.53,7.22-2.27-9.39-4.33-17.96-6.36-26.35-8.84,4.92-17.14,10.45-26.17,14.28-7.52,3.19-15.8,4.93-23.92,6.23-4.41.71-6.2,2.26-7.09,6.36-1.67,7.63-4.09,15.1-5.56,22.76-.86,4.45-2.97,5.18-6.87,4.57-16.8-2.64-32.43-8.35-47.42-17.59.73-2.42,1.42-4.9,2.24-7.34,18.96-56.22,38.07-112.39,56.75-168.7,2.35-7.1,4.49-11.44,13.24-12.26,16.99-1.6,31.26-10.49,45.85-21.92Zm-26.76,72.65c-6.03,25.78-11.75,50.28-17.63,75.43,11.48-1.83,21.3-6.2,30.68-11.94,2.79-1.71,2.91-3.56,2.21-6.18-1.67-6.25-3.24-12.52-4.9-18.77-3.32-12.45-6.69-24.9-10.35-38.54Z"/>
  <path d="m212.99,25.08c15.92,7.06,28.44,17.89,41.83,27.43,4.59,3.27,6.44,7.14,7.42,12.57,9.03,49.7,18.37,99.34,27.62,149,.56,3.01,1.04,6.03,2.71,9.13,9.95-39.31,19.89-78.61,29.94-118.3,15.42,10.59,30.63,21.05,46.04,31.64-17.59,54.91-35.42,110.53-53.47,166.87-8.5-6.39-16.56-12.44-24.61-18.53-6.24-4.72-12.31-9.69-18.75-14.14-3.31-2.28-4.78-5.14-5.58-8.85-11.66-53.9-23.2-107.82-35.18-161.64-5.38-24.15-11.66-48.1-17.52-72.15-.19-.78-.25-1.59-.46-3.04Z"/>
</svg>